<svg width="982" height="241" viewBox="0 0 982 241" fill="none" xmlns="http://www.w3.org/2000/svg">
<path d="M374.835 200.568L612.201 200.568M0.443692 5.8533L0.44367 240.56M32.0925 5.8533L32.0925 240.56M63.7413 5.8533L63.7412 240.56M95.3901 5.8533L95.39 240.56M127.039 5.8533L127.039 240.56M158.688 5.8533L158.688 240.56M190.336 5.8533L190.336 240.56M221.985 5.8533L221.985 240.56M253.634 5.8533L253.634 240.56M0.0840248 231.218L981.197 231.218M285.283 5.8533L285.283 240.56M0.0840248 216.794L981.197 216.794M316.932 5.8533L316.932 240.56M0.0840248 202.371L981.197 202.371M348.58 5.8533L348.58 240.56M0.0840248 187.948L981.197 187.948M380.229 5.8533L380.229 240.56M0.0840248 173.524L981.197 173.524M411.878 5.8533L411.878 240.56M0.0840248 159.101L981.197 159.101M443.527 5.8533L443.527 240.56M0.0840248 144.678L981.197 144.678M475.176 5.8533L475.176 240.56M0.0840248 130.254L981.197 130.254M506.824 5.8533L506.824 240.56M0.0840248 115.831L981.197 115.831M538.473 5.8533L538.473 240.56M0.0840248 101.408L981.197 101.408M570.122 5.8533L570.122 240.56M0.0840248 86.9845L981.197 86.9845M601.771 5.8533L601.771 240.56M0.0840248 72.5612L981.197 72.5612M633.42 5.8533L633.42 240.56M0.0840248 58.1379L981.197 58.1378M665.068 5.8533L665.068 240.56M0.0840248 43.7145L981.197 43.7145M696.717 5.8533L696.717 240.56M0.0840248 29.2912L981.197 29.2912M728.366 5.8533L728.366 240.56M0.0840248 14.8679L981.197 14.8679M760.015 5.8533L760.015 240.56M0.0840248 0.44455L981.197 0.44455M791.664 5.8533L791.664 240.56M823.312 5.8533L823.312 240.56M854.961 5.8533L854.961 240.56M886.61 5.8533L886.61 240.56M918.259 5.8533L918.259 240.56M949.908 5.8533L949.908 240.56M981.556 5.8533L981.556 240.56" stroke="url(#paint0_radial_130_910)" stroke-width="0.888972"/>
<defs>
<radialGradient id="paint0_radial_130_910" cx="0" cy="0" r="1" gradientUnits="userSpaceOnUse" gradientTransform="translate(490.82 106.253) rotate(90) scale(134.307 548.982)">
<stop stop-color="white" stop-opacity="0.12"/>
<stop offset="0.6" stop-color="white" stop-opacity="0"/>
</radialGradient>
</defs>
</svg>
